<svg xmlns="http://www.w3.org/2000/svg" xmlns:xlink="http://www.w3.org/1999/xlink" width="24" height="24" viewBox="0 0 24 24">
  <defs>
    <clipPath id="clip-Artboard_1">
      <rect width="24" height="24"/>
    </clipPath>
  </defs>
  <g id="Artboard_1" data-name="Artboard – 1" clip-path="url(#clip-Artboard_1)">
    <g id="Group_1" data-name="Group 1" transform="translate(-24 -2)">
      <g id="round-home-24px" transform="translate(24 2)">
        <path id="Path_3" data-name="Path 3" d="M0,0H24V24H0Z" fill="none"/>
        <path id="Path_4" data-name="Path 4" d="M10.325,18.429,9,20h6l-1-1a1,1,0,0,0,1,1h1.27a1,1,0,0,0,1-1L19,12h1.7a.5.5,0,0,0,.33-.87L12.67,3.6a1.008,1.008,0,0,0-1.34,0L2.97,11.13A.5.5,0,0,0,3.3,12H5l1.655,7a1,1,0,0,0,1,1H9C9.55,20,10.325,18.979,10.325,18.429Z"/>
      </g>
      <g id="round-home-24px-2" data-name="round-home-24px" transform="translate(25.674 3.674)">
        <path id="Path_3-2" data-name="Path 3" d="M0,0H20.651V20.651H0Z" fill="none"/>
        <path id="Path_4-2" data-name="Path 4" d="M8.586,14.927,7.569,16.133h4.607l-.768-.768c0,.422.328,1.84.75,1.84h.975a.77.77,0,0,0,.768-.768l1.5-7.115H16.73c.029,0,.269.23,0,0L10.387,3.541a.774.774,0,0,0-1.029,0L2.939,9.323c-.261.23.366-.322,0,0H4.327L5.75,16.437a.77.77,0,0,0,.768.768H7.551C7.973,17.205,8.586,15.349,8.586,14.927Z" transform="translate(0.453 0.305)"/>
      </g>
      <g id="Path_6" data-name="Path 6" transform="translate(33 11)" fill="#fff">
        <path d="M 3 5.5 C 1.621500015258789 5.5 0.5 4.378499984741211 0.5 3 C 0.5 1.621500015258789 1.621500015258789 0.5 3 0.5 C 4.378499984741211 0.5 5.5 1.621500015258789 5.5 3 C 5.5 4.378499984741211 4.378499984741211 5.5 3 5.5 Z" stroke="none"/>
        <path d="M 3 1 C 1.897200107574463 1 1 1.897200107574463 1 3 C 1 4.102799892425537 1.897200107574463 5 3 5 C 4.102799892425537 5 5 4.102799892425537 5 3 C 5 1.897200107574463 4.102799892425537 1 3 1 M 3 0 C 4.65684986114502 0 6 1.34315013885498 6 3 C 6 4.65684986114502 4.65684986114502 6 3 6 C 1.34315013885498 6 0 4.65684986114502 0 3 C 0 1.34315013885498 1.34315013885498 0 3 0 Z" stroke="none"/>
      </g>
    </g>
  </g>
</svg>
